<svg xmlns="http://www.w3.org/2000/svg" width="231.841" height="60.025" viewBox="0 0 231.841 60.025">
  <g id="Grupo_496" data-name="Grupo 496" transform="translate(-15151.667 24188.525)">
    <path id="Trazado_3" data-name="Trazado 3" d="M28,55.358,6.859,43.151V18.735L28,6.528,49.147,18.735V43.151ZM10.538,41.027,28,51.111,45.469,41.027V20.859L28,10.775,10.538,20.859Z" transform="translate(15150.689 -24189.455)" fill="#6ade01"/>
    <path id="Trazado_4" data-name="Trazado 4" d="M15.442,20.719A7.721,7.721,0,1,0,7.721,28.44a7.721,7.721,0,0,0,7.721-7.721" transform="translate(15151.667 -24190.379)" fill="#6ade01"/>
    <path id="Trazado_5" data-name="Trazado 5" d="M15.442,46.723a7.721,7.721,0,1,0-7.721,7.721,7.721,7.721,0,0,0,7.721-7.721" transform="translate(15151.667 -24194.084)" fill="#6ade01"/>
    <path id="Trazado_6" data-name="Trazado 6" d="M60.468,46.723a7.721,7.721,0,1,0-7.721,7.721,7.721,7.721,0,0,0,7.721-7.721" transform="translate(15145.251 -24194.084)" fill="#6ade01"/>
    <path id="Trazado_7" data-name="Trazado 7" d="M60.468,20.719a7.721,7.721,0,1,0-7.721,7.721,7.721,7.721,0,0,0,7.721-7.721" transform="translate(15145.251 -24190.379)" fill="#6ade01"/>
    <path id="Trazado_8" data-name="Trazado 8" d="M37.955,7.721a7.72,7.72,0,1,0-7.721,7.721,7.721,7.721,0,0,0,7.721-7.721" transform="translate(15148.459 -24188.525)" fill="#6ade01"/>
    <path id="Trazado_9" data-name="Trazado 9" d="M37.955,59.713a7.72,7.72,0,1,0-7.721,7.721,7.721,7.721,0,0,0,7.721-7.721" transform="translate(15148.459 -24195.934)" fill="#6ade01"/>
    <path id="Trazado_10" data-name="Trazado 10" d="M30.6,28.022c-.965,0-1.335.371-1.335,1.261V32.2h6.526v2.744H29.264v7.168H25.482V28.517c0-2.2,1.483-3.535,3.758-3.535a68.986,68.986,0,0,1,7.662.272l-.2,2.768Z" transform="translate(15148.036 -24192.086)" fill="#2e2e2f"/>
    <path id="Trazado_180" data-name="Trazado 180" d="M6.322-20.039q1.421,0,2.871.015t2.871.043q1.421.029,2.7.145l-.145,2.2H7.163a2.008,2.008,0,0,0-1.436.435,1.867,1.867,0,0,0-.449,1.392V0h-2.9V-16.356a3.471,3.471,0,0,1,1.073-2.712A4.115,4.115,0,0,1,6.322-20.039ZM2.871-11.368H13.514v2.262H2.871Zm17.893-2.784V0H18.009V-14.152Zm-.725-6.061a.743.743,0,0,1,.841.841v1.653a.743.743,0,0,1-.841.841H18.734a.743.743,0,0,1-.841-.841v-1.653a.743.743,0,0,1,.841-.841ZM34.075-14.5q3.857,0,3.857,3.886V0H35.119V-9.8a2.9,2.9,0,0,0-.435-1.841,1.86,1.86,0,0,0-1.479-.508,5.752,5.752,0,0,0-2.494.595q-1.247.595-2.987,1.639L27.608-11.8a14.075,14.075,0,0,1,3.248-2A8.123,8.123,0,0,1,34.075-14.5Zm-6.525.348.261,2.726.2.406V0H25.23V-14.152ZM46.777-20.01V0h-2.9V-20.01Zm6.38,0v2.494H37.526V-20.01Zm5.626,5.51q3.277,0,4.742,1.174A4.178,4.178,0,0,1,64.989-9.86,4.44,4.44,0,0,1,64.163-6.9a3.38,3.38,0,0,1-2.77,1.044H53.215v-2h7.453a1.238,1.238,0,0,0,1.247-.609,3.2,3.2,0,0,0,.29-1.392,2.232,2.232,0,0,0-.768-1.856,4.382,4.382,0,0,0-2.538-.551,5.112,5.112,0,0,0-2.32.435A2.4,2.4,0,0,0,55.4-10.324a10.634,10.634,0,0,0-.333,3.016,10.106,10.106,0,0,0,.42,3.32,2.637,2.637,0,0,0,1.363,1.581,6.057,6.057,0,0,0,2.508.435q1.1,0,2.479-.1t2.509-.247l.29,1.827a8.618,8.618,0,0,1-1.682.479,19.373,19.373,0,0,1-2.03.276q-1.044.087-1.914.087a9,9,0,0,1-4-.754,4.571,4.571,0,0,1-2.2-2.393,11.165,11.165,0,0,1-.7-4.306,11.423,11.423,0,0,1,.7-4.408,4.28,4.28,0,0,1,2.175-2.306A9.119,9.119,0,0,1,58.783-14.5ZM71.34-20.3,71.311-4.031a1.755,1.755,0,0,0,.507,1.363,2.007,2.007,0,0,0,1.407.464h1.334l.319,2.059a2.937,2.937,0,0,1-.8.232q-.507.087-1.044.131t-.913.044a3.6,3.6,0,0,1-2.6-.928,3.556,3.556,0,0,1-.971-2.7V-20.3Zm8.787,0L80.1-4.031a1.755,1.755,0,0,0,.507,1.363,2.007,2.007,0,0,0,1.407.464h1.334l.319,2.059a2.937,2.937,0,0,1-.8.232q-.507.087-1.044.131T80.91.261a3.6,3.6,0,0,1-2.6-.928,3.556,3.556,0,0,1-.971-2.7V-20.3Zm8.845,6.148V0H86.217V-14.152Zm-.725-6.061a.743.743,0,0,1,.841.841v1.653a.743.743,0,0,1-.841.841H86.942a.743.743,0,0,1-.841-.841v-1.653a.743.743,0,0,1,.841-.841ZM99.18-14.5a11.872,11.872,0,0,1,3.64.449,3.329,3.329,0,0,1,1.928,1.45,5.135,5.135,0,0,1,.58,2.6,5,5,0,0,1-.58,2.538,3.45,3.45,0,0,1-1.943,1.479,11.335,11.335,0,0,1-3.654.478,11.311,11.311,0,0,1-3.669-.478,3.47,3.47,0,0,1-1.928-1.464,4.923,4.923,0,0,1-.58-2.523,5.2,5.2,0,0,1,.58-2.624,3.332,3.332,0,0,1,1.943-1.45A12.139,12.139,0,0,1,99.18-14.5Zm-.029,2a5.059,5.059,0,0,0-2.813.566,2.219,2.219,0,0,0-.783,1.928,2.225,2.225,0,0,0,.783,1.914,4.955,4.955,0,0,0,2.813.58,4.878,4.878,0,0,0,2.8-.58,2.245,2.245,0,0,0,.769-1.914,2.239,2.239,0,0,0-.769-1.928A4.98,4.98,0,0,0,99.151-12.5Zm7.83-1.653-.145,1.45-3.654.319-1.015-1.769ZM95.12-6.409l1.537.2a2.077,2.077,0,0,0-.638,1.015,1.434,1.434,0,0,0,.087,1.1,1.48,1.48,0,0,0,1.16.638l5.278.812a4.292,4.292,0,0,1,2.842,1.233,4.206,4.206,0,0,1,.812,2.77,4.693,4.693,0,0,1-.653,2.668,3.629,3.629,0,0,1-2.16,1.363,16.211,16.211,0,0,1-4.06.406,21.273,21.273,0,0,1-3.335-.217,5.675,5.675,0,0,1-2.132-.725,2.9,2.9,0,0,1-1.146-1.319,5.084,5.084,0,0,1-.348-2,3.95,3.95,0,0,1,.276-1.566,2.875,2.875,0,0,1,.913-1.131,8.495,8.495,0,0,1,1.653-.957l1.827-.9,1.218.435L96.86-1.566a6.635,6.635,0,0,0-1,.855,3.245,3.245,0,0,0-.594.87,2.631,2.631,0,0,0-.2,1.088,2.373,2.373,0,0,0,.362,1.421,1.984,1.984,0,0,0,1.291.667,14.791,14.791,0,0,0,2.581.174,13.2,13.2,0,0,0,2.552-.189,2.044,2.044,0,0,0,1.262-.667,2.249,2.249,0,0,0,.362-1.377,2.355,2.355,0,0,0-.188-1.059,1.217,1.217,0,0,0-.711-.551,8.206,8.206,0,0,0-1.508-.334l-4.959-.638A2.748,2.748,0,0,1,94.6-1.9a2.548,2.548,0,0,1-.769-1.131,2.74,2.74,0,0,1-.116-1.305,3.248,3.248,0,0,1,.464-1.232A2.131,2.131,0,0,1,95.12-6.409ZM115.594-14.5q3.277,0,4.742,1.174A4.178,4.178,0,0,1,121.8-9.86a4.44,4.44,0,0,1-.826,2.958,3.38,3.38,0,0,1-2.77,1.044h-8.178v-2h7.453a1.238,1.238,0,0,0,1.247-.609,3.2,3.2,0,0,0,.29-1.392,2.232,2.232,0,0,0-.769-1.856,4.382,4.382,0,0,0-2.537-.551,5.112,5.112,0,0,0-2.32.435,2.4,2.4,0,0,0-1.174,1.508,10.634,10.634,0,0,0-.334,3.016,10.106,10.106,0,0,0,.421,3.32,2.637,2.637,0,0,0,1.363,1.581,6.057,6.057,0,0,0,2.509.435q1.1,0,2.479-.1t2.508-.247l.29,1.827a8.618,8.618,0,0,1-1.682.479,19.373,19.373,0,0,1-2.03.276q-1.044.087-1.914.087a9,9,0,0,1-4-.754,4.57,4.57,0,0,1-2.2-2.393,11.165,11.165,0,0,1-.7-4.306,11.423,11.423,0,0,1,.7-4.408,4.28,4.28,0,0,1,2.175-2.306A9.119,9.119,0,0,1,115.594-14.5Zm18.589,0q3.857,0,3.857,3.886V0h-2.813V-9.8a2.9,2.9,0,0,0-.435-1.841,1.86,1.86,0,0,0-1.479-.508,5.752,5.752,0,0,0-2.494.595q-1.247.595-2.987,1.639l-.116-1.885a14.075,14.075,0,0,1,3.248-2A8.123,8.123,0,0,1,134.183-14.5Zm-6.525.348.261,2.726.2.406V0h-2.784V-14.152Zm20.793-.348q.667,0,1.465.058t1.653.2a7.719,7.719,0,0,1,1.58.435l-.348,1.8q-1.015-.087-2.074-.13t-1.812-.043a6.051,6.051,0,0,0-2.566.45A2.638,2.638,0,0,0,145-10.179a9.217,9.217,0,0,0-.406,3.074A9.487,9.487,0,0,0,145-4a2.584,2.584,0,0,0,1.349,1.566A6.229,6.229,0,0,0,148.915-2q.435,0,1.131-.029t1.508-.087q.812-.058,1.566-.174l.261,1.856A11.26,11.26,0,0,1,151,.16a18.036,18.036,0,0,1-2.581.188,9.216,9.216,0,0,1-3.988-.725,4.336,4.336,0,0,1-2.161-2.349,11.775,11.775,0,0,1-.667-4.379,11.452,11.452,0,0,1,.682-4.35,4.334,4.334,0,0,1,2.175-2.335A9.38,9.38,0,0,1,148.451-14.5Zm13.891,0q3.277,0,4.742,1.174a4.178,4.178,0,0,1,1.464,3.466,4.44,4.44,0,0,1-.826,2.958,3.38,3.38,0,0,1-2.77,1.044h-8.178v-2h7.453a1.238,1.238,0,0,0,1.247-.609,3.2,3.2,0,0,0,.29-1.392A2.232,2.232,0,0,0,165-11.716a4.382,4.382,0,0,0-2.538-.551,5.112,5.112,0,0,0-2.32.435,2.4,2.4,0,0,0-1.175,1.508,10.634,10.634,0,0,0-.333,3.016,10.106,10.106,0,0,0,.421,3.32,2.637,2.637,0,0,0,1.363,1.581,6.056,6.056,0,0,0,2.508.435q1.1,0,2.479-.1t2.508-.247l.29,1.827a8.618,8.618,0,0,1-1.682.479,19.373,19.373,0,0,1-2.03.276q-1.044.087-1.914.087a9,9,0,0,1-4-.754,4.571,4.571,0,0,1-2.2-2.393,11.165,11.165,0,0,1-.7-4.306,11.423,11.423,0,0,1,.7-4.408,4.28,4.28,0,0,1,2.175-2.306A9.119,9.119,0,0,1,162.342-14.5Z" transform="translate(15214.959 -24147.602)" fill="#2e2e2f"/>
  </g>
</svg>
